
<svg id="_레이어_2" xmlns="http://www.w3.org/2000/svg" viewBox="0 0 1778.504 400.5">
  <g id="_레이어_1-2">
    <path d="m439.004,47h-49c-5-15.67-10-31.33-15-47-4.33,15.67-8.67,31.33-13,47h-49c8.5,9.33,17,18.67,25.5,28h22c-17.52,6.44-37.24,12.67-59,18-27.56,6.75-53.01,10.72-75.5,13-3.22-40.14-36.32-70.65-73.5-71-41.14-.39-77.17,36.25-75,81-34.53.65-68.76-.09-69.5-6-.98-7.76,56.18-20.34,56-21C63.814,88.3-.576,100.3.004,111c.33,6.08,21.59,11.68,77.5,16-.01,8.01,1.04,21.8,8,37,8.29,18.1,20.81,29.11,28.38,34.65,1.64,1.2,3.63,1.85,5.67,1.85h23.95c2.5,2.33,5,4.67,7.5,7v-42c-2.5,2.83-5,5.67-7.5,8.5h-19c-3.84-3.42-10.5-10.26-15-21-4.2-10.03-4.63-18.95-4.5-24,15.88.59,32.22.94,49,1,20.67.08,40.68-.28,60-1-1.86,2.46-3.86,3.52-5,4-1.69.71-3.15.81-6,1-2.47.16-4.54.1-6,0-.29,9.06-1.87,23.2-8.5,39-7.67,18.26-18.59,30.4-25.5,37,7.71-2.05,22.38-7.12,36-20,2.62-2.48,13.87-13.45,21-32,4.68-12.16,5.8-22.95,6-30,20.69-1.98,41.87-4.3,63.5-7,24.35-3.03,48.02-6.39,71-10,.33,1.67.67,3.33,1,5-15.67,2.88-31.84,5.56-48.5,8-26.68,3.9-52.39,6.84-77,9,24.84-.6,51.24-2.16,79-5,16.43-1.68,32.27-3.71,47.5-6,4.17,12.67,8.33,25.33,12.5,38,4.67-15.33,9.33-30.67,14-46h48c-9.67-11-19.33-22-29-33,10.33-11.33,20.67-22.67,31-34ZM163.004,112c-10.35.61-20.3.92-29.8.99-2.24.02-4.47-.37-6.57-1.16-7.51-2.82-16.3-7.53-17.63-14.82-2.71-14.8,25.23-40.39,52-35,19.25,3.88,34.66,23.13,36,47-10.73,1.26-22.08,2.3-34,3v-.01Zm211,32c-3.33-11-6.67-22-10-33,3.33-7.67,6.67-15.33,10-23v56Zm55-91c-8.33,9-16.67,18-25,27h-23c-.23-.97-.19-.82-.43-1.79,8.22-4.1,16.53-8.34,24.93-12.71,7.98-4.16,15.81-8.33,23.5-12.5Zm-53-39c3.67,12.33,7.33,24.67,11,37-3.67,7.67-7.33,15.33-11,23V14Zm50,96h-38c-3-7-5-14-8-21v-4c15.67,8.33,30.33,16.67,46,25Z" fill="#fff"></path>
    <path d="m83.504,191.5h-49v2l8,8v58c.16,3.6.2,8.35-.23,13.92-.03.37-.28,3.65-.77,7.08-2.22,15.74-7.17,27.07-9,31-3.36,7.25-6.73,12.34-9.5,16.5-5.62,8.43-11.19,14.92-15.5,19.5,6-1.05,15.16-3.36,25-9,2.69-1.54,16.21-9.51,27-26,7.28-11.14,9.92-21.18,12-29,2.76-10.36,3.7-19.39,4-26v-56l8-8v-2Z" fill="#fff"></path>
    <path d="m130.004,220h45v3c-2.67,2.33-5.33,4.67-8,7v7h69l9-9v46l-10-10h-68v33h43c3.67-3.33,7.33-6.67,11-10v45c-3.33-3-6.67-6-10-9h-44v34h79c3-3.33,6-6.67,9-10v46c-3-3.33-6-6.67-9-10H47.004l-9,9v-44c2.67,3,5.33,6,8,9h93v-34h-46c-3.33,3.33-6.67,6.67-10,10v-47c3,3.67,6,7.33,9,11h47v-33h-46c-3.33,3.33-6.67,6.67-10,10v-46l9,9h47v-6l-9-9v-2Z" fill="#fff"></path>
    <path d="m354.004,160h46v3l-8,8v141c-.73,8.08-.5,55.5-41,75-8.75,4.21-16.51,8.23-24,10,13.81-17.23,28.78-42.16,33-74,.5-3.75.82-7.42,1-11v-84c-5.72,5.6-16.34,14.37-32,19-6.75,2-12.91,2.78-18,3,17.28-13.03,40.59-35.56,49-69,.85-3.39,1.51-6.72,2-10l-8-8v-3Z" fill="#fff"></path>
    <path d="m455.004,90h44v3c-2.33,2.33-4.67,4.67-7,7v29h23c3.33-3.33,6.67-6.67,10-10v46c-3.33-3-6.67-6-10-9h-23v23h34c3.33-3.33,6.67-6.67,10-10v45c-2.67-2.67-5.33-5.33-8-8h-102l-7,7v-43c2.67,3,5.33,6,8,9h35v-23h-22l-10,10v-47l10,10h22v-29l-7-7v-3Z" fill="#fff"></path>
    <path d="m455.004,222h45v3c-3,2.67-6,5.33-9,8v25h25c2.67-2.67,5.33-5.33,8-8v43c-2.67-2.33-5.33-4.67-8-7h-24v30c14.03.58,28.37.92,43,1,4.36.02,8.69.02,13,0,2.67-3,5.33-6,8-9v48l-7-7h-65c-5.95-.29-14.75-1.18-25-4-12.24-3.36-30.95-8.51-45-25-11.41-13.39-14.87-28.54-16-38,6.49,7.31,19.57,19.92,40,27,9.94,3.44,18.96,4.66,26,5v-28h-24l-9,9v-46l9,9h24v-25c-3-2.67-6-5.33-9-8v-3Z" fill="#fff"></path>
    <path d="m555.504,89.5v41c3-2.33,6-4.67,9-7h58c3,2.33,6,4.67,9,7v-41c-3,2.33-6,4.67-9,7h-58c-3-2.33-6-4.67-9-7Z" fill="#fff"></path>
    <path d="m546.504,136.5v44c3.33-2.67,6.67-5.33,10-8h20v140c-.21,9.76-1.69,24.46-8,41-7.31,19.17-17.91,32.42-25,40,7.21-1.49,27.38-6.65,44-25,20.65-22.79,21.07-49.66,21-56v-140h22c3.33,2.67,6.67,5.33,10,8v-44c-3.33,3-6.67,6-10,9h-74c-3.33-3-6.67-6-10-9Z" fill="#fff"></path>
    <path d="m710.504,141.5c4,3.33,8,6.67,12,10h97v-27c-2.33-3-4.67-6-7-9v-2h51v2c-2.67,3-5.33,6-8,9v27h41c4-3.33,8-6.67,12-10v52c-4-3.67-8-7.33-12-11h-41v107c-.7,25.65-5.98,80.31-44.5,106.5-2.35,1.6-4.85,3.1-7.5,4.5,3.17-8.76,6.2-18.97,8.5-30.5,3.5-17.57,4.29-33.27,4-46h-31.16c-4.74,0-9.32-1.78-12.78-5.02-16.67-15.64-25.17-38-22.06-59.98,4.25-30.08,29.54-54.67,62-59-5.05,4.91-26.27,26.64-26,59,.05,6.37.93,12.15,2.18,17.22,2,8.09,9.24,13.78,17.57,13.78h14.25c-.17-35.83-.33-71.67-.5-107.5h-98c-3.5,3.83-7,7.67-10.5,11.5-.17-17.5-.33-35-.5-52.5Z" fill="#fff"></path>
    <path d="m997.504,126.5l-.59,1.41,9.59,9.59v153.72c0,16.37,2.89,32.65,8.95,47.85,7.07,17.74,19.49,37.13,41.05,45.43,6.02,2.32,14.34,4.38,25,4-3.39-2.95-6.76-6.27-10-10-22.37-25.77-26-54-27-75v-166c2.87-3.22,5.73-6.45,8.6-9.67-.28-.63-.31-.7-.6-1.33h-55Z" fill="#fff"></path>
    <path d="m1123.504,159.5c2.76,2.74,5.45,5.74,8,9,23.1,29.51,22,66,22,86v80c-3,2.67-6,5.33-9,8v2h56v-2c-3-2.67-6-5.33-9-8v-80c.09-6.11.04-57.37-38-83-10.41-7.01-21.1-10.38-30-12Z" fill="#fff"></path>
    <path d="m1313.004,137h53v2c-3,2.67-6,5.33-9,8v27h60v-27c-3-2.67-6-5.33-9-8v-2h54v2c-3.33,2.67-6.67,5.33-10,8v27h26c3-3.33,6-6.67,9-10h2v49h-2c-3-2.67-6-5.33-9-8h-31c-.49,8.46-2.77,27.37-16,46-18.63,26.23-45.79,33.35-53,35,6.97-7.06,17.29-19.26,25-37,7.81-17.97,9.63-34.04,10-44h-57v136h52c16.43-.25,44.03-3.54,66-23,2.56-2.26,4.88-4.61,7-7-.53,8.68-2.62,15.62-5,21-15.72,35.52-62.35,43.76-78.09,45.55-2.67.3-5.36.45-8.05.45h-67.86v-173h-35c-3,2.67-6,5.33-9,8h-2v-49h2c3,3.33,6,6.67,9,10h35v-27c-3-2.67-6-5.33-9-8v-2Z" fill="#fff" stroke="#fff" stroke-miterlimit="10"></path>
    <path d="m1575.504,126.5l-.59,1.41,9.59,9.59v153.72c0,16.37,2.89,32.65,8.95,47.85,7.07,17.74,19.49,37.13,41.05,45.43,6.02,2.32,14.34,4.38,25,4-3.39-2.95-6.76-6.27-10-10-22.37-25.77-26-54-27-75v-166c2.87-3.22,5.73-6.45,8.6-9.67l-.6-1.33h-55Z" fill="#fff"></path>
    <path d="m1701.504,159.5c2.76,2.74,5.45,5.74,8,9,23.1,29.51,22,66,22,86v80c-3,2.67-6,5.33-9,8v2h56v-2c-3-2.67-6-5.33-9-8v-80c.09-6.11.04-57.37-38-83-10.41-7.01-21.1-10.38-30-12Z" fill="#fff"></path>
  </g>
</svg>